<?xml version="1.0" standalone="no"?><!DOCTYPE svg PUBLIC "-//W3C//DTD SVG 1.1//EN" "http://www.w3.org/Graphics/SVG/1.1/DTD/svg11.dtd"><svg t="1764254630526" class="icon" viewBox="0 0 1024 1024" version="1.1" xmlns="http://www.w3.org/2000/svg" p-id="1649" xmlns:xlink="http://www.w3.org/1999/xlink" width="200" height="200"><path d="M512 959.538873c-246.777453 0-447.538873-200.76142-447.538873-447.538873S265.222547 64.461127 512 64.461127s447.538873 200.76142 447.538873 447.538873S758.777453 959.538873 512 959.538873zM512 98.295723c-228.119511 0-413.704277 185.584766-413.704277 413.704277S283.879466 925.704277 512 925.704277 925.704277 740.119511 925.704277 512 740.119511 98.295723 512 98.295723z" p-id="1650"></path><path d="M347.320357 490.148319c-54.650691 0-99.125625-44.473911-99.125625-99.124602s44.473911-99.125625 99.125625-99.125625c54.673204 0 99.147114 44.473911 99.147114 99.125625S401.992537 490.148319 347.320357 490.148319zM347.320357 325.732689c-35.993772 0-65.290005 29.297256-65.290005 65.290005s29.297256 65.290005 65.290005 65.290005c36.015262 0 65.312518-29.297256 65.312518-65.290005S383.335618 325.732689 347.320357 325.732689z" p-id="1651"></path><path d="M252.66658 856.735485l-28.944216-17.49035 137.872091-228.031507c4.823865-7.996115 12.886495-13.217023 22.138206-14.384615 9.075703-1.299599 18.304901 1.87265 24.979928 8.392134l97.671507 95.468328 221.86404-318.742485c5.925966-8.546653 15.860223-12.951987 26.081005-12.974499 10.440793 0.441045 19.781532 6.079462 25.02393 15.111163l158.644183 274.995121-29.297256 16.917298L752.829997 405.847332 531.780509 723.444736c-5.088902 7.313569-13.106506 12.005428-21.983687 12.863982-8.921183 0.74906-17.666358-2.24718-24.054859-8.481162l-97.495498-95.313809L252.66658 856.735485z" p-id="1652"></path></svg>